<svg width="49" height="48" viewBox="0 0 49 48" fill="none" xmlns="http://www.w3.org/2000/svg">
<path d="M17.9779 30.5399L31.0579 17.46" stroke="#FEFEFE" stroke-width="3" stroke-linecap="round" stroke-linejoin="round"/>
<path d="M18.7978 20.7398C20.1564 20.7398 21.2578 19.6385 21.2578 18.2798C21.2578 16.9212 20.1564 15.8198 18.7978 15.8198C17.4392 15.8198 16.3378 16.9212 16.3378 18.2798C16.3378 19.6385 17.4392 20.7398 18.7978 20.7398Z" stroke="#FEFEFE" stroke-width="3" stroke-linecap="round" stroke-linejoin="round"/>
<path d="M31.8778 32.1797C33.2364 32.1797 34.3378 31.0783 34.3378 29.7197C34.3378 28.3611 33.2364 27.2598 31.8778 27.2598C30.5192 27.2598 29.4178 28.3611 29.4178 29.7197C29.4178 31.0783 30.5192 32.1797 31.8778 32.1797Z" stroke="#FEFEFE" stroke-width="3" stroke-linecap="round" stroke-linejoin="round"/>
<path d="M24.8378 44C35.8835 44 44.8378 35.0457 44.8378 24C44.8378 12.9543 35.8835 4 24.8378 4C13.7921 4 4.83777 12.9543 4.83777 24C4.83777 35.0457 13.7921 44 24.8378 44Z" stroke="#FEFEFE" stroke-width="3" stroke-linecap="round" stroke-linejoin="round"/>
</svg>
