<svg width="44" height="40" viewBox="0 0 44 40" fill="none" xmlns="http://www.w3.org/2000/svg">
<path d="M38.0714 12.1802C38.0714 13.0202 38.0114 13.8402 37.9114 14.6202C36.9914 14.2202 35.9914 14.0002 34.9314 14.0002C32.4914 14.0002 30.3314 15.1802 28.9914 16.9802C27.6314 15.1802 25.4714 14.0002 23.0314 14.0002C18.9314 14.0002 15.6114 17.3402 15.6114 21.4802C15.6114 26.8402 18.4514 30.9402 21.6114 33.7202C21.5114 33.7802 21.4114 33.8002 21.3114 33.8402C20.7114 34.0602 19.7114 34.0602 19.1114 33.8402C13.9314 32.0602 2.35138 24.7002 2.35138 12.1802C2.35138 6.66018 6.79136 2.2002 12.2714 2.2002C15.5314 2.2002 18.4114 3.76018 20.2114 6.18018C22.0314 3.76018 24.9114 2.2002 28.1514 2.2002C33.6314 2.2002 38.0714 6.66018 38.0714 12.1802Z" stroke="#FEFEFE" stroke-width="3" stroke-linecap="round" stroke-linejoin="round"/>
<path d="M42.3514 21.48C42.3514 30.84 33.6914 36.36 29.8114 37.68C29.3514 37.84 28.6114 37.84 28.1514 37.68C26.4914 37.12 23.9514 35.78 21.6114 33.72C18.4514 30.94 15.6114 26.84 15.6114 21.48C15.6114 17.34 18.9314 14 23.0314 14C25.4714 14 27.6314 15.18 28.9914 16.98C30.3314 15.18 32.4914 14 34.9314 14C35.9914 14 36.9914 14.22 37.9114 14.62C40.5314 15.78 42.3514 18.4 42.3514 21.48Z" stroke="#FEFEFE" stroke-width="3" stroke-linecap="round" stroke-linejoin="round"/>
</svg>
